<?xml version="1.0" standalone="no"?><!DOCTYPE svg PUBLIC "-//W3C//DTD SVG 1.1//EN" "http://www.w3.org/Graphics/SVG/1.1/DTD/svg11.dtd"><svg t="1513042528392" class="icon" style="" viewBox="0 0 1024 1024" version="1.1" xmlns="http://www.w3.org/2000/svg" p-id="1449" xmlns:xlink="http://www.w3.org/1999/xlink" width="200" height="200"><defs><style type="text/css"></style></defs><path d="M880.436 371.319c-4.847-25.931-26.098-61.268-38.857-74.399L702.1 153.547c-17.854-18.351-46.852-18.351-64.748 0-17.897 18.393-17.897 48.219 0 66.571l55.717 57.291-556.963 429.206 28.874 39.601 344.161-265.204L382.38 889.424h30.737l45.071-145.196h116.487v-0.911l45.361 146.107h30.861l-129.66-417.733 206.256-158.907 49.338 50.787c13.421 13.794 52.9 35.585 79.371 37.822v488.983h31.731V371.317h-7.498zM563.865 708.522H469.25l47.308-152.404 47.308 152.404z" p-id="1450"></path></svg>