<?xml version="1.0" standalone="no"?><!DOCTYPE svg PUBLIC "-//W3C//DTD SVG 1.1//EN" "http://www.w3.org/Graphics/SVG/1.1/DTD/svg11.dtd"><svg t="1513042903720" class="icon" style="" viewBox="0 0 1024 1024" version="1.1" xmlns="http://www.w3.org/2000/svg" p-id="10599" xmlns:xlink="http://www.w3.org/1999/xlink" width="200" height="200"><defs><style type="text/css"></style></defs><path d="M754.804938 182.044444 248.063774 182.044444l-213.930441 325.079365 0 381.968254 934.603175 0 0-381.968254L754.804938 182.044444zM522.29418 804.300529l-35.216931 0 0-35.216931 35.216931 0L522.29418 804.300529zM928.101587 806.196825 627.403175 806.196825l-8.126984 0-16.253968 0L603.022222 684.021164 403.098413 684.021164 403.098413 806.196825l-16.253968 0-8.126984 0L78.019048 806.196825l0-35.75873 300.698413 0L378.71746 684.021164l-60.681481 0L318.035979 534.213757 128.677249 534.213757l175.493192-296.90582 394.528959 0L874.192593 534.213757 683.479365 534.213757 683.479365 684.021164l-56.07619 0 0 86.416931L928.101587 770.438095 928.101587 806.196825z" p-id="10600"></path></svg>